<svg id="Layer_1" data-name="Layer 1" xmlns="http://www.w3.org/2000/svg" viewBox="0 0 372.59 278.9"><defs><style>.cls-1{fill:#e6e7e8;}.cls-2{fill:#3b97d2;}.cls-3{fill:#2c3e50;}.cls-4{fill:#d0cde1;}.cls-5{fill:#ffb9b9;}.cls-6{opacity:0.1;isolation:isolate;}.cls-7{fill:#fff;}</style></defs><circle class="cls-1" cx="47.5" cy="160.62" r="47.5"/><circle class="cls-2" cx="55.23" cy="153.67" r="47.5"/><path class="cls-3" d="M96.94,252.92A59.09,59.09,0,1,1,156,193.83,59.16,59.16,0,0,1,96.94,252.92Zm0-117.41a58.32,58.32,0,1,0,58.32,58.32,58.38,58.38,0,0,0-58.32-58.32Z"/><path class="cls-3" d="M265.67,65.36h-1.51V24a24,24,0,0,0-24-24H152.5a24,24,0,0,0-24,24h0v227.1a24,24,0,0,0,24,24h87.7a24,24,0,0,0,24-24h0V94.82h1.51Z"/><rect class="cls-3" x="112.88" y="274.28" width="259.72" height="0.93"/><path class="cls-2" d="M240.6,6.8H229.15a8.5,8.5,0,0,1-7.87,11.71H171A8.5,8.5,0,0,1,163.17,6.8H152.48a17.9,17.9,0,0,0-17.9,17.89V251.46a17.9,17.9,0,0,0,17.9,17.89H240.6a17.9,17.9,0,0,0,17.9-17.89h0V24.69A17.9,17.9,0,0,0,240.6,6.8ZM238.68,112a4.64,4.64,0,0,1-4.64,4.63h-22.4A4.64,4.64,0,0,1,207,112v-1.16a4.65,4.65,0,0,1,4.63-4.63H234a4.65,4.65,0,0,1,4.64,4.63Zm2.51-20.47a4.65,4.65,0,0,1-4.63,4.64H156.22a4.65,4.65,0,0,1-4.63-4.64V90.37a4.65,4.65,0,0,1,4.63-4.63h80.34a4.65,4.65,0,0,1,4.63,4.63Zm0-20.47a4.65,4.65,0,0,1-4.63,4.64H156.22a4.65,4.65,0,0,1-4.63-4.64V69.9a4.65,4.65,0,0,1,4.63-4.63h80.34a4.65,4.65,0,0,1,4.63,4.63Zm0-20.47a4.65,4.65,0,0,1-4.63,4.64H156.22a4.65,4.65,0,0,1-4.63-4.64V49.43a4.65,4.65,0,0,1,4.63-4.63h80.34a4.65,4.65,0,0,1,4.63,4.63Z"/><circle class="cls-4" cx="158.35" cy="91.14" r="2.7"/><circle class="cls-4" cx="167.23" cy="91.14" r="2.7"/><circle class="cls-4" cx="176.11" cy="91.14" r="2.7"/><circle class="cls-4" cx="185" cy="91.14" r="2.7"/><circle class="cls-4" cx="213.96" cy="111.61" r="2.7"/><circle class="cls-4" cx="222.84" cy="111.61" r="2.7"/><circle class="cls-4" cx="231.73" cy="111.61" r="2.7"/><rect class="cls-1" x="312.45" y="12.36" width="10.81" height="10.81"/><rect class="cls-2" x="310.13" y="15.06" width="10.81" height="10.81"/><path class="cls-3" d="M299.7,18.92h17.77V36.69H299.7Zm17,.78H300.47V35.92h16.22Z"/><rect class="cls-1" x="101.19" y="101.57" width="10.81" height="10.81"/><rect class="cls-2" x="103.51" y="98.87" width="10.81" height="10.81"/><path class="cls-3" d="M124.75,105.82H107V88.06h17.77Zm-17-.77H124V88.83H107.76Z"/><path class="cls-5" d="M285,162.92s-6.74,14-2.24,14.6,5.61-12.63,5.61-12.63Z"/><polygon class="cls-5" points="310.58 252.76 306.09 260.72 314.23 265.81 316.17 256.41 310.58 252.76"/><path class="cls-3" d="M308.66,261.82s-2.46-4-3.36-3.34-4.57,3.59-4.57,3.59l-4.79,4.59s-16.19,1.71-5.9,7.38,16,1,16,1,14.41.75,14.18-3.27-4.88-10.38-4.88-10.38S309.45,265.29,308.66,261.82Z"/><path class="cls-6" d="M308.66,261.82s-2.46-4-3.36-3.34-4.57,3.59-4.57,3.59l-4.79,4.59s-16.19,1.71-5.9,7.38,16,1,16,1,14.41.75,14.18-3.27-4.88-10.38-4.88-10.38S309.45,265.29,308.66,261.82Z"/><path class="cls-3" d="M330.51,162.78l-4.21,51s-.14,30.46-4.63,36.35-4.63,8.85-4.63,8.85l-9.27-4.78s3.09-.28,1.69-2.24-5.62,0-1.69-2.81,4.77-2.9,3.79-4.12a6.85,6.85,0,0,1-1.26-2.62l2.53-31.44-4.78-54.75Z"/><path class="cls-6" d="M330.51,162.78l-4.21,51s-.14,30.46-4.63,36.35-4.63,8.85-4.63,8.85l-9.27-4.78s3.09-.28,1.69-2.24-5.62,0-1.69-2.81,4.77-2.9,3.79-4.12a6.85,6.85,0,0,1-1.26-2.62l2.53-31.44-4.78-54.75Z"/><polygon class="cls-5" points="319 252.76 322.93 263.15 334.16 258.94 327.14 251.64 319 252.76"/><path class="cls-3" d="M324.58,258.68s-4.2-2.62-4.72-1.57-2.62,5.5-2.62,5.5l-2.37,6.56s-14.42,9.18-2.09,9.7,15.47-6.55,15.47-6.55,13.9-6,11.8-9.71-9.44-7.48-9.44-7.48S326.94,261.57,324.58,258.68Z"/><path class="cls-3" d="M294.86,162.92l-2.25,46.89S303.56,241,313.11,246c0,0,0,6.18,2.24,7.3a5.64,5.64,0,0,1,2.81,3.37l12.35-3.09s-3.09-3.09-2-4.49-3.65-4.49-3.65-4.49l-12.36-30a4.94,4.94,0,0,1-2.52-3.65c-.56-2.81-1.69-2.81,1.12-3.37a3.49,3.49,0,0,0,2.81-3.37l9.26-42.67Z"/><circle class="cls-5" cx="304.96" cy="78.14" r="11.23"/><path class="cls-5" d="M314.93,78.84s.84,14.32,2,15.72-11.79,1.12-11.79,1.12.84-12.07,0-13.19S314.93,78.84,314.93,78.84Z"/><path class="cls-2" d="M318.72,90.21s-10.67-1.12-14.6,2.24a27.77,27.77,0,0,1-4,2.88,8.25,8.25,0,0,0-4,6.83L294,166s31.72-2.81,37.62,0c0,0,.28-6.46.84-7.3.41-.61,1.11-25.1,1.47-38.33a29.14,29.14,0,0,0-7.37-20.32A15.62,15.62,0,0,0,321,95.82S321.53,90.49,318.72,90.21Z"/><path class="cls-2" d="M301.6,95.82h0a8.3,8.3,0,0,0-6.11,6.87l-4,28.51-5.62,22.74s-2.8,2.52-1.68,3.93-1.4,7.3-1.4,7.3l7,2.24s.85-5.89,2.25-6.17c1.23-.25,15-37.14,18.37-46.08l.72-1.93S310.58,94.42,301.6,95.82Z"/><path class="cls-6" d="M311,113.09,294,159S310.44,128,311,113.09Z"/><path class="cls-3" d="M310.83,81.45a15.05,15.05,0,0,0-2.82.38,7.14,7.14,0,0,1-7.63-5.32,4.07,4.07,0,0,0-.39-1.27,2.51,2.51,0,0,0-2.68-.81,20.62,20.62,0,0,1-2.89.7A4.43,4.43,0,0,1,290.6,73a7.36,7.36,0,0,1-.94-4.43l.74.77a3.74,3.74,0,0,0,.33-2,2.37,2.37,0,0,1,2.23.57c.65.07.16-1.2.64-1.64a1.13,1.13,0,0,1,.78-.15c1.38,0,2.5-1,3.58-1.89a15.38,15.38,0,0,1,6.43-2.93,8.49,8.49,0,0,1,4.69.23,9.82,9.82,0,0,1,3.16,2.25,19.2,19.2,0,0,1,5.32,7.89,13.2,13.2,0,0,1,.07,7.7c-.39,1.31-1.56,5.79-3.27,5.89C312.22,85.33,313.51,81.6,310.83,81.45Z"/><circle class="cls-7" cx="196.54" cy="180.82" r="39.83"/><polygon class="cls-2" points="169.06 175.99 187.11 189.06 237.37 152.67 186.1 208.96 169.06 175.99"/></svg>