<svg id="Layer_1" data-name="Layer 1" xmlns="http://www.w3.org/2000/svg" viewBox="0 0 110.5 141.83"><defs><style>.cls-1,.cls-2{fill:#fff;}.cls-1{stroke:#fff;stroke-miterlimit:10;stroke-width:2px;}</style></defs><path class="cls-1" d="M107.29,55l-.38-.39a7.72,7.72,0,0,0-4.31-2.22l2.19-2.14a7.85,7.85,0,0,0,.15-11.07l-.37-.38a7.78,7.78,0,0,0-4.31-2.22l1.59-1.55A7.86,7.86,0,0,0,102,24l-.37-.39a7.84,7.84,0,0,0-11.07-.14l-2.33,2.27V8.7A7.72,7.72,0,0,0,80.51,1H40.11a7.71,7.71,0,0,0-7.7,7.7V43.92l-7.32,7.13L20.36,55,20.58,91,3.7,107.92A9.31,9.31,0,0,0,3.7,121l17.1,17.08a9.2,9.2,0,0,0,6.54,2.72h0a9.22,9.22,0,0,0,6.56-2.72l26-25.94L81.31,91.26a7.67,7.67,0,0,0,6.8-6.63l19-18.53A7.86,7.86,0,0,0,107.29,55Zm-49.53,56.9Zm-.69-1.55-.13.12-.15.14v0L31.63,135.83a6,6,0,0,1-4.28,1.77h0a6,6,0,0,1-4.25-1.77L6,118.75a6.05,6.05,0,0,1,0-8.54L23.34,92.86h0a1.64,1.64,0,0,0,.49-1.16l-.21-35.23L41.86,41.41A7.77,7.77,0,0,1,42.78,50c-1.87,3.51-5.57,7.07-11,10.58l-2,1.33,2,1.37C41,69.47,46.05,76.68,46.9,84.64c1.34,12.48-8.24,22.91-8.63,23.32,0,0,0,0,0,0a1.62,1.62,0,0,0,.06,2.29,1.59,1.59,0,0,0,1.11.45,1.62,1.62,0,0,0,1.17-.5,39.8,39.8,0,0,0,5.09-7.1,34.83,34.83,0,0,0,4.24-11.79H76.6ZM84.33,83.63a3.83,3.83,0,0,1-3.82,3.83H50.24a25.66,25.66,0,0,0-.12-3.14,27,27,0,0,0-4.88-12.68H84.33Zm0-13.93H43.79a43.81,43.81,0,0,0-7.51-7.18l-.77-.59.77-.56c4.46-3.24,7.54-6.49,9.35-9.89A11,11,0,0,0,43,38l-1-.88-5.7,4.7V16.88H84.33Zm0-54.76h-48V8.7a3.83,3.83,0,0,1,3.83-3.82h40.4A3.83,3.83,0,0,1,84.34,8.7v6.24Zm3.88,15.3,4.59-4.47a4.59,4.59,0,0,1,6.5.08l.37.38A4.54,4.54,0,0,1,101,29.5a4.59,4.59,0,0,1-1.38,3.23L88.21,43.82Zm0,18.09L95.75,41A4.54,4.54,0,0,1,99,39.69a4.59,4.59,0,0,1,3.23,1.38l.37.38a4.62,4.62,0,0,1-.08,6.51l-14.33,14Zm16.66,15.45L88.21,80V66.45l9.87-9.63a4.6,4.6,0,0,1,6.51.07l.38.38A4.61,4.61,0,0,1,104.87,63.78Z"/><path class="cls-1" d="M35.51,61.93l.77.59V61.37Z"/><path class="cls-1" d="M60.31,83.16a3.85,3.85,0,1,0-3.85-3.85A3.85,3.85,0,0,0,60.31,83.16Zm0-5.76a1.91,1.91,0,1,1-1.91,1.91A1.92,1.92,0,0,1,60.31,77.4Z"/><path class="cls-2" d="M56.83,46.36l-5.94-11.5,6.3,4.56L72,28.73a13.69,13.69,0,1,0,.39.6Z"/></svg>