<svg id="Layer_1" data-name="Layer 1" xmlns="http://www.w3.org/2000/svg" xmlns:xlink="http://www.w3.org/1999/xlink" viewBox="0 0 386.67 353.55"><defs><style>.cls-1,.cls-20{opacity:0.1;isolation:isolate;}.cls-2,.cls-28{fill:none;}.cls-2{stroke:#535461;stroke-width:2px;}.cls-2,.cls-27,.cls-28,.cls-7{stroke-miterlimit:10;}.cls-3{fill:#4db757;}.cls-4{fill:#171442;}.cls-5{fill:#40414d;}.cls-6{fill:#dfe6f5;}.cls-27,.cls-7{fill:#ffd77c;stroke:#ffab50;}.cls-8{fill:#f6c6cd;}.cls-9{fill:url(#linear-gradient);}.cls-10{fill:#b8616e;}.cls-11{fill:#2d90c1;}.cls-12{fill:#3b97d2;}.cls-13{fill:#f8bdc5;}.cls-14{fill:#758ac8;}.cls-15{fill:#203444;}.cls-16{fill:#f2b98f;}.cls-17{fill:#2c3e50;}.cls-18{fill:#fdc899;}.cls-19{fill:#fdb36f;}.cls-20,.cls-26{fill:#fff;}.cls-21{fill:url(#linear-gradient-2);}.cls-22{fill:#915460;}.cls-23{fill:#eb6475;}.cls-24{fill:#138041;}.cls-25{fill:#a0616a;}.cls-27{stroke-width:0.25px;}.cls-28{stroke:#4db757;stroke-linecap:round;stroke-width:3px;}</style><linearGradient id="linear-gradient" x1="420.08" y1="-2026.22" x2="420.08" y2="-1828.7" gradientTransform="matrix(1, 0, 0, -1, -148.11, -1673.13)" gradientUnits="userSpaceOnUse"><stop offset="0" stop-color="gray" stop-opacity="0.25"/><stop offset="0.54" stop-color="gray" stop-opacity="0.12"/><stop offset="1" stop-color="gray" stop-opacity="0.1"/></linearGradient><linearGradient id="linear-gradient-2" x1="256.03" y1="-2018.89" x2="256.03" y2="-1831.07" xlink:href="#linear-gradient"/></defs><ellipse class="cls-1" cx="29.55" cy="307.69" rx="20.82" ry="7.4"/><ellipse class="cls-1" cx="365.86" cy="338.29" rx="20.82" ry="7.4"/><path class="cls-2" d="M365,339.34s5.56-18.89-1-32.79a29.88,29.88,0,0,1-2.42-18.73A51.12,51.12,0,0,1,364.2,279"/><path class="cls-3" d="M360.1,270.25c0,2.31,4.19,9,4.19,9s4.19-6.71,4.19-9a4.2,4.2,0,1,0-8.39,0Z"/><path class="cls-3" d="M353.17,283.08c1.26,1.94,8.43,5.3,8.43,5.3s-.13-7.92-1.39-9.86a4.19,4.19,0,0,0-7,4.56Z"/><path class="cls-3" d="M353.47,305c2.07,1,9.95.32,9.95.32s-4.11-6.76-6.18-7.8a4.19,4.19,0,1,0-3.77,7.48Z"/><path class="cls-3" d="M357.43,321.52c1.85,1.39,9.75,2,9.75,2s-2.9-7.36-4.76-8.74a4.19,4.19,0,0,0-5,6.74Z"/><path class="cls-3" d="M370.39,288.83c-1.66,1.61-9.4,3.28-9.4,3.28s1.9-7.68,3.56-9.3a4.19,4.19,0,0,1,5.84,6Z"/><path class="cls-3" d="M374.78,308.22c-2.06,1-9.95.32-9.95.32s4.11-6.77,6.18-7.79a4.19,4.19,0,1,1,3.77,7.49Z"/><path class="cls-3" d="M376.46,327.65c-1.85,1.39-9.75,2-9.75,2s2.91-7.37,4.77-8.74a4.19,4.19,0,0,1,5,6.74Z"/><path class="cls-2" d="M29.55,307.75s11.89-40.3-2.22-70a63.79,63.79,0,0,1-5.14-40A106.92,106.92,0,0,1,27.84,179"/><path class="cls-3" d="M19.07,160.28c0,4.94,8.94,19.27,8.94,19.27s9-14.34,9-19.27a9,9,0,1,0-17.9,0v0Z"/><path class="cls-3" d="M4.28,187.65c2.69,4.16,18,11.31,18,11.31s-.27-16.89-3-21a8.95,8.95,0,0,0-15,9.72Z"/><path class="cls-3" d="M4.92,234.43c4.41,2.22,21.24.69,21.24.69S17.37,220.67,13,218.46a8.95,8.95,0,0,0-8.06,16h0Z"/><path class="cls-3" d="M13.36,269.71c4,2.94,20.82,4.27,20.82,4.27S28,258.25,24,255.32a8.95,8.95,0,0,0-10.64,14.39Z"/><path class="cls-3" d="M41.05,199.9c-3.54,3.45-20.06,7-20.06,7s4-16.4,7.59-19.84A9,9,0,0,1,41.07,199.9h0Z"/><path class="cls-3" d="M50.42,241.31c-4.41,2.23-21.24.69-21.24.69S38,227.56,42.36,225.35a8.95,8.95,0,1,1,8.06,16h0Z"/><path class="cls-3" d="M54,282.79c-4,2.94-20.81,4.27-20.81,4.27s6.2-15.73,10.17-18.66A8.95,8.95,0,1,1,54,282.79Z"/><path class="cls-4" d="M175.4,208.33,149.62,205c-1.05-.13-1.85-.53-1.83-.88h0c.05-.34.93-.51,2-.35l25.72,3.72c.71.1,1.25.37,1.22.61h0C176.69,208.31,176.1,208.42,175.4,208.33Z"/><path class="cls-4" d="M175.56,208.77,149.7,206.1c-1-.11-1.94.09-2,.43h0c0,.35.81.72,1.86.81l25.9,2.31c.71.07,1.3-.07,1.32-.31h0C176.82,209.09,176.27,208.85,175.56,208.77Z"/><path class="cls-4" d="M214.36,228.22l25.77-3.34c1.05-.13,1.85-.53,1.82-.87h0c0-.35-.92-.51-2-.36l-25.73,3.72c-.7.11-1.24.37-1.21.61h0C213.06,228.2,213.65,228.32,214.36,228.22Z"/><path class="cls-4" d="M214.19,228.66,240.05,226c1-.11,1.94.09,2,.44h0c0,.34-.8.71-1.85.8l-25.9,2.31c-.72.07-1.3-.07-1.32-.31h0C212.93,229,213.48,228.74,214.19,228.66Z"/><rect class="cls-5" x="122.79" y="255.91" width="6.29" height="90.14"/><rect class="cls-5" x="260.11" y="255.91" width="6.29" height="90.14"/><path class="cls-6" d="M120.39,248.58H265.65a10.17,10.17,0,0,1,10.18,10.17v1.35H110.22v-1.35A10.17,10.17,0,0,1,120.39,248.58Z"/><path class="cls-1" d="M119.93,248.58H265.19a10.17,10.17,0,0,1,10.18,10.17v1.35H109.75v-1.35A10.17,10.17,0,0,1,119.93,248.58Z"/><path class="cls-6" d="M120.39,246.47H265.65a10.18,10.18,0,0,1,10.18,10.18V258H110.22v-1.35A10.17,10.17,0,0,1,120.39,246.47Z"/><circle class="cls-7" cx="193.02" cy="226.56" r="12.58"/><circle class="cls-7" cx="193.02" cy="226.56" r="9.97"/><circle class="cls-7" cx="193.02" cy="226.56" r="7.6"/><circle class="cls-7" cx="193.02" cy="226.56" r="4.27"/><circle class="cls-7" cx="185.69" cy="233.37" r="12.58"/><circle class="cls-7" cx="185.69" cy="233.37" r="9.97"/><circle class="cls-7" cx="185.69" cy="233.37" r="7.6"/><circle class="cls-7" cx="185.69" cy="233.37" r="4.27"/><circle class="cls-7" cx="200.36" cy="233.37" r="12.58"/><circle class="cls-7" cx="200.36" cy="233.37" r="9.97"/><circle class="cls-7" cx="200.36" cy="233.37" r="7.6"/><circle class="cls-7" cx="200.36" cy="233.37" r="4.27"/><path class="cls-3" d="M166.82,229.71h52.41v2.46a18.51,18.51,0,0,1-18.51,18.51h-15.4a18.51,18.51,0,0,1-18.5-18.51v-2.46Z"/><path class="cls-1" d="M214.5,229.71a21,21,0,0,1-20.95,20.43H183.14a20.62,20.62,0,0,0,4.63.53h10.48a21,21,0,0,0,21-21H214.5Z"/><rect class="cls-5" x="126.99" y="324.57" width="136.27" height="6.29"/><rect class="cls-5" x="70.39" y="302.61" width="5.5" height="50.05"/><rect class="cls-5" x="113.84" y="302.61" width="5.5" height="50.05"/><path class="cls-8" d="M123.74,294.36c0,3.34-11.32,6.06-25.29,6.06s-24.75-2.71-24.75-6.06,10.78-6.05,24.75-6.05S123.74,291,123.74,294.36Z"/><path class="cls-5" d="M66,294.36h57.75v5a4.86,4.86,0,0,1-4.86,4.86H74.32A8.33,8.33,0,0,1,66,295.93v-1.57Z"/><path class="cls-5" d="M56.19,236.5l1.19-.27a3.23,3.23,0,0,1,3.87,2.44l14.42,63.89h0l-1.8.41a5.85,5.85,0,0,1-7-4.42L53.73,240.37a3.25,3.25,0,0,1,2.45-3.87Z"/><rect class="cls-5" x="311.07" y="303.5" width="5.5" height="50.05"/><rect class="cls-5" x="267.63" y="303.5" width="5.5" height="50.05"/><path class="cls-8" d="M263.23,295.25c0,3.34,11.33,6.05,25.3,6.05s24.75-2.7,24.75-6.05-10.78-6.06-24.75-6.06S263.23,291.91,263.23,295.25Z"/><path class="cls-5" d="M312.65,305.15H268.09a4.85,4.85,0,0,1-4.86-4.85v-5.05H321v1.58A8.32,8.32,0,0,1,312.65,305.15Z"/><path class="cls-5" d="M313.11,303.86l-1.81-.41h0l14.43-63.9a3.23,3.23,0,0,1,3.87-2.44l1.19.27a3.24,3.24,0,0,1,2.45,3.87L320.1,299.43A5.86,5.86,0,0,1,313.11,303.86Z"/><path class="cls-9" d="M315.07,275.77l1.62-.51a274.2,274.2,0,0,1-2.75-35.16v-1.43c0-1,.07-2.07.12-3.07.07-1.29.08-2.51.07-3.7.15-16-6.15-22.76-6.15-22.76s-7.4-10.56-11.84-12.61c-.38-1.21-.82-2.75-1.21-4.55l.41-.29a59.55,59.55,0,0,0,5.26-4.38c2.27-2.14,4.46-4.74,4.33-7.67a4.83,4.83,0,0,0,0-.85c-.42-3.54-4.1-6.21-5.59-9.56-1.25-2.82-.87-6-2-8.82s-4.91-5.51-7.78-4a15.62,15.62,0,0,0-2.59,2.28c-2.19,1.85-5.72,2-8.72,1.18s-3.89-4.27-8.08-4.28a4.67,4.67,0,0,1,1.06.5,6.23,6.23,0,0,0-1.06-.09,4.61,4.61,0,0,1,3.2,3.89c0,.11,0,.22,0,.33-1.68.9-3.88.39-5.89.36s-4.29,1-4.09,2.62a1.32,1.32,0,0,0,0,.56c.26,1.25,1.93,2.19,2.13,3.34v.09a34.41,34.41,0,0,1-11.87,3.46c-.13,0-.07.17.13.4h-.13c-.75.08,4.52,4.25,5.13,4.52a71.2,71.2,0,0,0,7.16,2.5l.21.07a14.52,14.52,0,0,0-1.19,5.78A15.44,15.44,0,0,0,277,198.71c1.3,1.51,2.66,3.17,3.9,4.82h-.09A46.13,46.13,0,0,0,273.09,230a47.09,47.09,0,0,0,.32,5.94c-5.13-.29-16.14-1.64-24.52-7.77-11.3-8.27-23.91-5.79-21.28-.83s16.08,9.09,18.25,9.51c.21,0,.68.14,1.35.31-2.67.5-4.5,1.39-4.39,2.58.22,2.27,11.74,9.5,18.69,9.92A72.5,72.5,0,0,1,276,252.56c.42,9.5-1.87,12.35-1.87,12.35s.68.43,1.81,1l-.48,1.39a35,35,0,0,1-9.47,4,51.64,51.64,0,0,0-11.67,3.89l-15.65,7.56a9.08,9.08,0,0,0-5.19,7.12c-.34,3.21.63,7.21,5.87,10.39.32,2.61,1.91,5.64,6.09,8.43,8.09,5.38,29.37,21.52,32.27,23.72.05,3.93-.47,11.83-5.32,13.06-6.09,1.55-1.19,7.4,3.73,7.17a6.44,6.44,0,0,0,3.66.27c5.22-1.24,24.34-7.86,25.65-17.77a11.33,11.33,0,0,0,.07-1.3,8.63,8.63,0,0,0-1.21-4.81,8.38,8.38,0,0,1,.49,1.38c-1.58-3.6-5.43-5.87-8.43-7.15v-.1c-.46-.18-.93-.33-1.31-.46a3.55,3.55,0,0,0-.06-.8l-30-20.67s13-10.74,26.52-9.09,15.62-.79,15.62-.79,6.91-6.57,7.61-14.14l.43-.12S315.13,276.65,315.07,275.77Z"/><path class="cls-10" d="M278.44,329.6s1.23,13.49-4.91,15.13-.4,8.18,4.5,6.94,22.9-7.77,24.13-17.58S289.89,321,289.89,321Z"/><path class="cls-11" d="M278.44,329.6s1.23,13.49-4.91,15.13-.4,8.18,4.5,6.94,22.9-7.77,24.13-17.58S289.89,321,289.89,321Z"/><path class="cls-12" d="M280.91,330s1.22,13.5-4.91,15.14-.41,8.18,4.49,6.94,22.91-7.78,24.13-17.58-12.26-13.09-12.26-13.09Z"/><path class="cls-1" d="M293.58,321.83l-11.44,8.59s.05.58.09,1.51c4.32-1.19,13.73-4.33,13.87-9.25A20.17,20.17,0,0,0,293.58,321.83Z"/><rect class="cls-13" x="281.52" y="204.24" width="4.91" height="3.68"/><path class="cls-14" d="M281.73,263.74s-7.8,6.13-14.2,7.58a47.5,47.5,0,0,0-11,3.85l-14.72,7.48a8.94,8.94,0,0,0-4.88,7.05c-.42,4.16,1.25,9.64,11.25,12.89l31.49,26.18,9.81-8.18L256,294.83l25.77-15.95Z"/><path class="cls-15" d="M281.73,263.74s-7.8,6.13-14.2,7.58a47.5,47.5,0,0,0-11,3.85l-14.72,7.48a8.94,8.94,0,0,0-4.88,7.05c-.42,4.16,1.25,9.64,11.25,12.89l31.49,26.18,9.81-8.18L256,294.83l25.77-15.95Z"/><path class="cls-13" d="M277.22,236.35s-15.13.41-25.76-7.77-22.5-5.73-20-.82,15.13,9,17.17,9.4,31.49,8.59,31.49,8.59Z"/><path class="cls-16" d="M277.22,236.35s-15.13.41-25.76-7.77-22.5-5.73-20-.82,15.13,9,17.17,9.4,31.49,8.59,31.49,8.59Z"/><path class="cls-17" d="M278.86,260.07,274,274.8s-27.6,17-29.85,19.22c-1.75,1.75-4.09,8.59,4.09,14.31s30.67,23.72,30.67,23.72,17.17-3.7,15.95-10.64L266.59,301s12.27-10.64,25-9,14.72-.82,14.72-.82,9.82-9.83,6.54-19.22S278.86,260.07,278.86,260.07Z"/><path class="cls-16" d="M272.73,193.43s13.9,15.13,13.09,19.63,11-13.09,11-13.09A45.6,45.6,0,0,1,294,181.15Z"/><path class="cls-1" d="M284.86,207.31a38.56,38.56,0,0,1,3-2.86,41.86,41.86,0,0,0,5.73-5.72C296.45,195,307.08,211,307.08,211s6.54,7.36,5.73,24.95,1,41.1,1,41.1l-2.47.69A14.18,14.18,0,0,1,298.82,276c-3.27-2.26-7.4-4.63-10.55-4.84a28.58,28.58,0,0,1-11.66-3.89s2.66-6.34-1.43-26.79a47.75,47.75,0,0,1,6.34-35S282.34,209.91,284.86,207.31Z"/><path class="cls-12" d="M315.26,275.2l-2.45.82-1.46.49a14.18,14.18,0,0,1-12.54-1.78c-3.26-2.26-7.4-4.63-10.54-4.84-6.13-.41-13.07-4.91-13.07-4.91s4.09-5.32,0-25.77a47.68,47.68,0,0,1,6.34-35s.82,4.43,3.35,1.83a38.16,38.16,0,0,1,3-2.85,41.45,41.45,0,0,0,5.74-5.73c2.86-3.7,13.49,12.27,13.49,12.27s6.54,7.36,5.73,25c-.09,1.85-.13,3.76-.13,5.69A280.69,280.69,0,0,0,315.26,275.2Z"/><path class="cls-1" d="M292,235.12l.41,9s-21.68,1.23-26.18-3.27,12.26,13.23,16,14.31c3.48,1,12.45,1.93,17.15,2a6.93,6.93,0,0,0,6.48-3.93,6.57,6.57,0,0,0,.51-3.81c-.82-5.32,0-16.77,0-16.77Z"/><path class="cls-18" d="M292,234.3l.41,9s-21.68,1.23-26.18-3.27-20.77-3.5-20.45,0c.21,2.25,11,9.41,17.58,9.82s15.13,3.41,18.83,4.49c3.48,1,12.45,1.93,17.15,2a6.93,6.93,0,0,0,6.48-3.93,6.57,6.57,0,0,0,.51-3.81c-.82-5.32,0-16.77,0-16.77Z"/><path class="cls-1" d="M296.86,208.13s-9.41,1.22-8.18,15.13,2.86,15.13,2.86,15.13,13.91-1.22,15.54-1.63.82-15.54.82-15.54S307.49,207.72,296.86,208.13Z"/><path class="cls-12" d="M296.86,207.72s-9.41,1.23-8.18,15.13S291.54,238,291.54,238s13.91-1.23,15.54-1.64.82-15.54.82-15.54S307.49,207.31,296.86,207.72Z"/><path class="cls-19" d="M293.38,189.93c-.64-3.24.67-4.24,1-8.38l-21.28,12.27s2.44,2.65,5.21,6.06a15.13,15.13,0,0,0,3.79.46C287.69,200.37,290.74,194.38,293.38,189.93Z"/><circle class="cls-18" cx="281.72" cy="184.82" r="15.13"/><path class="cls-1" d="M285.54,180.22c-2.32,1.48-2.35,4.8-.86,7.11s4.06,3.82,6.53,5.25a4,4,0,0,0,2.31.76,3.42,3.42,0,0,0,1.66-.84,56.47,56.47,0,0,0,4.94-4.33c2.25-2.21,4.41-4.94,4.06-8-.4-3.51-3.86-6.14-5.26-9.46-1.17-2.78-.82-5.89-1.85-8.73s-4.63-5.45-7.32-4a15.26,15.26,0,0,0-2.43,2.26c-2.06,1.82-5.39,2-8.21,1.17s-3.66-4.23-7.59-4.24a4.4,4.4,0,0,1,3,4.59c-1.57.89-3.65.38-5.55.35s-4.16,1-3.83,2.74c.29,1.39,2.29,2.42,2,3.81a31.27,31.27,0,0,1-11.17,3.42c-.7.08,4.26,4.2,4.82,4.47a66.87,66.87,0,0,0,6.74,2.48C273.44,181.09,279.52,181.82,285.54,180.22Z"/><path class="cls-17" d="M285.54,179.81c-2.32,1.47-2.35,4.8-.86,7.1s4.06,3.83,6.53,5.26a4,4,0,0,0,2.31.76,3.42,3.42,0,0,0,1.66-.84,58.18,58.18,0,0,0,4.94-4.33c2.25-2.22,4.41-4.94,4.06-8-.4-3.5-3.86-6.14-5.26-9.45-1.17-2.78-.82-5.89-1.85-8.73s-4.63-5.46-7.32-4a14.81,14.81,0,0,0-2.43,2.26c-2.06,1.82-5.39,2-8.21,1.17s-3.66-4.24-7.59-4.25a4.4,4.4,0,0,1,3,4.59c-1.57.9-3.65.39-5.55.36s-4.16,1-3.83,2.74c.29,1.39,2.29,2.42,2,3.81a31.27,31.27,0,0,1-11.17,3.42c-.7.08,4.26,4.2,4.82,4.47a66.87,66.87,0,0,0,6.74,2.48C273.44,180.68,279.52,181.4,285.54,179.81Z"/><path class="cls-20" d="M303.56,328.46a9.13,9.13,0,0,1,.66,4.82c-1.23,9.81-19.22,16.35-24.13,17.57a6.5,6.5,0,0,1-6.59-2.68,6.38,6.38,0,0,0,7,3.5c4.91-1.22,22.9-7.77,24.13-17.58A9,9,0,0,0,303.56,328.46Z"/><path class="cls-21" d="M173.58,339.61h0c-.36-.82-2.26-2.43-11.4-2.77-6.27-.24-8.4-3.55-9-6.78,2.06-.26,3.67-.63,4.2-1.15l-.08-.41.08-.05a43.88,43.88,0,0,1-.63-7.05,27.67,27.67,0,0,1,.64-6,17.51,17.51,0,0,0,.32-4c.05-7.87-2.71-21.69-2.71-21.69l-.38-11.49a8,8,0,0,0-4.34-6.89,6.56,6.56,0,0,0-2.94-.73s-14.5-2.29-27.55-3.53c-.92-.75-4.19-2.75-11.66-1.6l-4.3-12.59a3.85,3.85,0,0,1-.08-.47c.15-1.6,1.22-4,6.21-4.16l1,.93s.18-.37.49-.93c6.18-.07,39.85-.41,41.59,0,1.91.46,18.64-3.27,19.12-3.73,6.51-6.34-19.12-3.26-19.12-3.26-2.53.41-10.67-.08-19-.76,4.13-6.2,8-27.22,8-27.22s14.8-7.47,10.52-11.66S135.41,211,135.41,211s-5.26,15.4-7.66,20.06c-.92,1.85-2.12,2.23-3.19,2,.49-.39.8-.62.8-.62s-10.52-8.4-11.48-11.66a7.06,7.06,0,0,0-.7-1.53c-.5-3-1.39-5.87-3.54-7.81a7.53,7.53,0,0,0-1.2-1c-.58-.41-1.24-.77-1.79-1.23h0c.31-1.42.67-2.9,1-4.34a15.54,15.54,0,0,0,13.88-15.26,14.87,14.87,0,0,0-.42-3.52,6.81,6.81,0,0,0,6-2.9,8,8,0,0,0,.2-8,10,10,0,0,0-2.12-2.68,12.45,12.45,0,0,0-4.86-3c-1.58-.55-3.34-.88-4.59-2a18.93,18.93,0,0,1-1.54-2.31,11.88,11.88,0,0,0-1.85-2.16,16.94,16.94,0,0,0-8.9-4.49c-4.05-.79-8.24-.51-12.36-.23-1.54.11-3.35.38-4.05,1.72-.52,1-.18,2.22-.25,3.34-.21,3.58-4.3,5.55-7.86,6.42s-7.8,1.61-9.52,4.75c-1.56,2.83-.46,6.26,0,9.44a23.14,23.14,0,0,1-3.48,16c-1.57,2.4-3.58,4.52-4.82,7.09a13.56,13.56,0,0,0-.9,9.19,6.29,6.29,0,0,1,.4,2.73,4.82,4.82,0,0,1-1.08,2,24.51,24.51,0,0,1-17.44,9,5,5,0,0,0,1.59,2.4,11.77,11.77,0,0,0,3.3,2.29,50.18,50.18,0,0,0,10.13,3.77,17.74,17.74,0,0,0,7.23.61,7.6,7.6,0,0,0,5.73-3.95c.57-1.26.65-2.69,1.16-4,1-2.56,3.53-4.22,5.23-6.42a156.39,156.39,0,0,0-.81,17v4.88c0,6.42-.47,10.86-4.45,18.88a4.89,4.89,0,0,0-.6,2.78,3,3,0,0,0,1,2.82,27.3,27.3,0,0,0-.41,4.85c0,5.85,1.92,13.7,12.4,15.69l18.64-.93s26.3-5.13,33.47-1.38a2.64,2.64,0,0,1,2.1,2.58,5.62,5.62,0,0,1-.18,1.15,18,18,0,0,0-.23,3.67c0,7.86,1.66,25.71,1.66,25.71V330c-1.19,1.79-2.66,4.45-2.47,6.41v.13a.38.38,0,0,0,0,.17s0,.1,0,.15a.42.42,0,0,1,0,.15,1,1,0,0,0,.06.16l.05.12.09.18.06.1a2.27,2.27,0,0,0,.18.25c2.4,2.78,14.35,8.15,18.18,7.93,4.06-.23,17.69.46,18.17-5.6A.71.71,0,0,0,173.58,339.61Z"/><path class="cls-3" d="M139.59,327.9s-5.55,6.94-3.24,9.71,13.88,8.09,17.58,7.87c3.94-.23,17.12.46,17.58-5.55,0,0,.93-2.78-11.1-3.24s-8.33-12.95-8.33-12.95Z"/><path class="cls-1" d="M73.44,269.61s-5.55,19,11.1,22.21l18-.93S128,285.8,135,289.5c0,0,2.77.47,1.85,4.17s1.38,28.68,1.38,28.68v8.33s15.73,0,17.58-1.86c0,0-1.38-7.4,0-13.41s-2.31-25-2.31-25L153.1,279a7.93,7.93,0,0,0-4.19-6.85,6.23,6.23,0,0,0-2.84-.72s-31.45-5.09-42.56-4.16S73.44,269.61,73.44,269.61Z"/><path class="cls-17" d="M73.44,269.15s-5.55,19,11.1,22.2l18-.92S128,285.34,135,289c0,0,2.77.46,1.85,4.16s1.38,28.69,1.38,28.69v8.32s15.73,0,17.58-1.85c0,0-1.38-7.4,0-13.41s-2.31-25-2.31-25l-.37-11.42a7.93,7.93,0,0,0-4.19-6.85,6.23,6.23,0,0,0-2.84-.72s-31.45-5.09-42.56-4.16S73.44,269.15,73.44,269.15Z"/><path class="cls-13" d="M121.09,231.68s3.7,4.62,6,0,7.4-19.9,7.4-19.9,12.49-13.41,16.66-9.25S141,214.1,141,214.1s-5.09,28.22-9.72,28.68a88.24,88.24,0,0,1-11.56,0l-2.31-5.09Z"/><path class="cls-22" d="M121.09,231.68s3.7,4.62,6,0,7.4-19.9,7.4-19.9,12.49-13.41,16.66-9.25S141,214.1,141,214.1s-5.09,28.22-9.72,28.68a88.24,88.24,0,0,1-11.56,0l-2.31-5.09Z"/><path class="cls-23" d="M104.43,208.55s8.33,9.71,9.26,12.95,11.1,11.56,11.1,11.56-7.4,5.56-6,8.33-9.71-9.25-9.71-9.25l-13-19Z"/><path class="cls-24" d="M104.43,208.55s8.33,9.71,9.26,12.95,11.1,11.56,11.1,11.56-7.4,5.56-6,8.33-9.71-9.25-9.71-9.25l-13-19Z"/><path class="cls-22" d="M110,197.44s-4.16,13.42-4.16,18.51-17.58-1.39-17.12-4.17,10.18-12.95,10.64-17.11S110,197.44,110,197.44Z"/><path class="cls-1" d="M96.11,206.69s-16.2-4.16-18.51,19.43,1.85,26.37-5.09,40.71,47.19,1.85,47.19,1.85-2.78-3.23-11.57-1.85L104,254.34s-1.39-5.55,6.48-5.55,4.16-16.19,4.16-16.19-4.16-13.88-6.48-15.27S101.66,207.62,96.11,206.69Z"/><path class="cls-3" d="M96.11,205.77s-16.2-4.16-18.51,19.43,1.85,26.37-5.09,40.71,47.19,1.85,47.19,1.85-2.78-3.24-11.57-1.85L104,253.42s-1.39-5.55,6.48-5.55,4.16-16.19,4.16-16.19-4.16-13.88-6.48-15.27S101.66,206.69,96.11,205.77Z"/><path class="cls-25" d="M112.3,239.08s33.77,3.7,39.32,2.77c0,0,24.8-3,18.5,3.24-.46.46-16.65,4.17-18.5,3.7s-41.17,0-41.17,0l-.47-4.62Z"/><path class="cls-1" d="M86.39,227.51l24.52,22.21s4.63-9.25,6-9.25-16.65-27.3-16.65-27.3-4.63-5.55-7.4-2.77S81.77,211.32,86.39,227.51Z"/><path class="cls-3" d="M85.93,226.59l24.52,22.2s4.62-9.25,6-9.25-16.65-27.29-16.65-27.29-4.63-5.56-7.4-2.78S81.3,210.4,85.93,226.59Z"/><circle class="cls-25" cx="105.82" cy="190.5" r="15.27"/><path class="cls-1" d="M119.19,186.67a6.32,6.32,0,0,0,7.29-2.53,8.06,8.06,0,0,0,.2-8,11.33,11.33,0,0,0-6.29-5.2c-1.59-.56-3.36-.89-4.59-2.05a13.3,13.3,0,0,1-1.8-2.63c-2.16-3.37-6-5.36-9.94-6.14s-8-.5-12-.23c-1.48.11-3.23.38-3.91,1.71-.5,1-.17,2.2-.24,3.31-.21,3.55-4.16,5.52-7.62,6.37s-7.46,1.65-9.14,4.78c-1.51,2.81-.43,6.21,0,9.37a23.32,23.32,0,0,1-3.37,15.83c-1.51,2.37-3.46,4.48-4.65,7a13.66,13.66,0,0,0-.87,9.12,6.63,6.63,0,0,1,.38,2.7,4.82,4.82,0,0,1-1,2,23.54,23.54,0,0,1-16.87,9c.53,2,2.45,3.24,4.27,4.16a47.27,47.27,0,0,0,9.8,3.74,16.77,16.77,0,0,0,7,.61,7.37,7.37,0,0,0,5.55-3.92c.56-1.25.64-2.66,1.13-3.94,1.11-2.86,4-4.59,5.64-7.22s2.1-2.82,2.48-5.72,1.23-6,3.62-7.75,6-1.45,8.79-.08,4.49.84,6.81,2.86a56.54,56.54,0,0,0,13.51,8.71c-.46-4-1.21-8.54-4.48-10.94-.93-.69-2.1-1.22-2.59-2.27-.78-1.68.56-3.73,0-5.48s-2.91-2.41-3.93-4a4.45,4.45,0,0,1,.18-4.57,12.25,12.25,0,0,1,3.38-3.39c1.14-.86,2.29-1.7,3.46-2.52a12.41,12.41,0,0,0,2.81-2.45c.47-.63.77-2,1.41-2.47C115.2,183.38,117.69,186.08,119.19,186.67Z"/><path class="cls-17" d="M118.73,186.21a6.32,6.32,0,0,0,7.29-2.53,8,8,0,0,0,.19-8,11.24,11.24,0,0,0-6.28-5.2c-1.6-.57-3.37-.89-4.59-2a14.11,14.11,0,0,1-1.81-2.63c-2.16-3.37-6-5.36-9.93-6.14s-8-.51-12-.23c-1.49.11-3.24.38-3.91,1.71-.51,1-.18,2.2-.24,3.31-.21,3.55-4.17,5.52-7.62,6.37s-7.46,1.65-9.15,4.78c-1.51,2.8-.43,6.21,0,9.36a23.41,23.41,0,0,1-3.37,15.84c-1.51,2.37-3.46,4.48-4.66,7a13.76,13.76,0,0,0-.87,9.11,6.52,6.52,0,0,1,.39,2.71,4.72,4.72,0,0,1-1,2,23.55,23.55,0,0,1-16.87,9c.52,2,2.44,3.23,4.27,4.16a47.62,47.62,0,0,0,9.8,3.74,16.77,16.77,0,0,0,7,.61A7.38,7.38,0,0,0,71,235.27c.55-1.25.64-2.66,1.13-3.94,1.1-2.86,4-4.59,5.63-7.23s2.1-2.81,2.49-5.72,1.23-6,3.61-7.74,6-1.45,8.79-.08,4.5.84,6.81,2.86a56.46,56.46,0,0,0,13.52,8.7c-.47-4-1.21-8.53-4.49-10.93-.92-.69-2.09-1.22-2.58-2.27-.78-1.68.55-3.73,0-5.49s-2.91-2.4-3.93-4a4.45,4.45,0,0,1,.18-4.57,12.25,12.25,0,0,1,3.38-3.39c1.14-.86,2.29-1.7,3.46-2.52a12.63,12.63,0,0,0,2.81-2.45c.46-.64.77-2,1.41-2.47C114.74,182.92,117.23,185.62,118.73,186.21Z"/><path class="cls-26" d="M151.56,327.38a16,16,0,0,1,.52-3.64l-.23.07A15.89,15.89,0,0,0,151.56,327.38Z"/><path class="cls-26" d="M153.93,344.55c-3.7.22-15.26-5.09-17.58-7.86a2.44,2.44,0,0,1-.53-1.31,2.87,2.87,0,0,0,.53,2.23c2.32,2.78,13.88,8.09,17.58,7.87,3.94-.23,17.12.46,17.58-5.55a.75.75,0,0,0-.06-.49C170.39,345,157.77,344.33,153.93,344.55Z"/><rect class="cls-27" x="172.21" y="206.46" width="0.46" height="18.97"/><rect class="cls-27" x="172.67" y="206.46" width="0.46" height="18.97"/><rect class="cls-27" x="173.13" y="206.46" width="0.46" height="18.97"/><rect class="cls-27" x="173.59" y="206.46" width="0.46" height="18.97"/><rect class="cls-27" x="174.06" y="206.46" width="0.46" height="18.97"/><rect class="cls-27" x="174.52" y="206.46" width="0.46" height="18.97"/><rect class="cls-27" x="174.98" y="206.46" width="0.46" height="18.97"/><path class="cls-3" d="M327.46,21.42,309.08,2.94a9.75,9.75,0,0,0-13.8-.16l-.06.06L179.79,117.3,131,68.11a9.73,9.73,0,0,0-13.76-.1L98.64,86.39a9.86,9.86,0,0,0-.1,13.86L172.66,175a9.88,9.88,0,0,0,13.87.1L327.36,35.28a9.75,9.75,0,0,0,.16-13.8Z"/><circle class="cls-28" cx="332.54" cy="111.96" r="17.28"/><circle class="cls-28" cx="195.66" cy="33.25" r="8.64"/><rect class="cls-28" x="47.11" y="101.43" width="21.05" height="21.05" transform="translate(-62.28 73.54) rotate(-45)"/></svg>