<svg id="Layer_1" data-name="Layer 1" xmlns="http://www.w3.org/2000/svg" viewBox="0 0 98.53 135.14"><defs><style>.cls-1{fill:#fff;}</style></defs><rect class="cls-1" x="14.75" y="19.45" width="19.59" height="19.59"/><rect class="cls-1" x="14.75" y="67.02" width="19.59" height="19.59"/><rect class="cls-1" x="62.32" y="19.45" width="19.59" height="19.59"/><polygon class="cls-1" points="76.31 44.63 76.31 61.42 62.32 61.42 62.32 67.02 81.91 67.02 81.91 44.63 76.31 44.63"/><polygon class="cls-1" points="62.32 72.61 62.32 86.6 67.92 86.6 67.92 78.21 76.31 78.21 76.31 86.6 81.91 86.6 81.91 72.61 62.32 72.61"/><polygon class="cls-1" points="39.94 19.45 39.94 25.05 51.13 25.05 51.13 39.03 56.72 39.03 56.72 19.45 39.94 19.45"/><polygon class="cls-1" points="51.13 44.63 51.13 55.82 39.94 55.82 39.94 72.61 51.13 72.61 51.13 86.6 56.72 86.6 56.72 67.02 45.53 67.02 45.53 61.42 56.72 61.42 56.72 50.23 62.32 50.23 62.32 55.82 67.92 55.82 67.92 44.63 51.13 44.63"/><rect class="cls-1" x="39.94" y="78.21" width="5.6" height="8.39"/><rect class="cls-1" x="25.94" y="55.82" width="8.39" height="5.6"/><polygon class="cls-1" points="39.94 30.64 39.94 44.63 14.75 44.63 14.75 61.42 20.35 61.42 20.35 50.23 45.53 50.23 45.53 30.64 39.94 30.64"/><path class="cls-1" d="M7.42,135.14a2.38,2.38,0,0,0,.39,0l.39,0H76.29a2.79,2.79,0,0,0,1.06-.22,3,3,0,0,0,.9-.59l19.47-19.47a2.87,2.87,0,0,0,.59-.9,2.79,2.79,0,0,0,.22-1.06V7.42A7.44,7.44,0,0,0,91.1,0H7.42A7.43,7.43,0,0,0,0,7.42V127.71A7.43,7.43,0,0,0,7.42,135.14Zm71.64-9.47v-8.13a1.88,1.88,0,0,1,1.88-1.87h8.12ZM5.55,7.42A1.87,1.87,0,0,1,7.42,5.55H91.11A1.87,1.87,0,0,1,93,7.42v102.7h-12a7.43,7.43,0,0,0-7.43,7.42v12H8.2a2.56,2.56,0,0,0-.39,0,2.34,2.34,0,0,0-.38,0,1.88,1.88,0,0,1-1.88-1.88V7.42Z"/><path class="cls-1" d="M49.43,117.75a6.85,6.85,0,0,1-2.1,1.25,6.66,6.66,0,0,1-2.39.46,4.92,4.92,0,0,1-2.86-.9A6.32,6.32,0,0,1,40,116.08a8.61,8.61,0,0,1-4.12-1.14A7.81,7.81,0,0,1,32,108.05a7.63,7.63,0,0,1,1.09-4,7.71,7.71,0,0,1,3-2.84,9.3,9.3,0,0,1,8.51,0,7.71,7.71,0,0,1,3,2.84,7.63,7.63,0,0,1,1.09,4,7.78,7.78,0,0,1-5,7.41,2.34,2.34,0,0,0,1.74,1,3.17,3.17,0,0,0,1.22-.31,8.23,8.23,0,0,0,1.42-.84Zm-12.72-7.36A4.32,4.32,0,0,0,38.26,112a4,4,0,0,0,4.21,0,4.13,4.13,0,0,0,1.5-1.65,4.87,4.87,0,0,0,.55-2.32,4.82,4.82,0,0,0-.55-2.3,4.1,4.1,0,0,0-1.5-1.64,4,4,0,0,0-2.1-.59,4.09,4.09,0,0,0-2.13.59,4.37,4.37,0,0,0-1.55,1.64,4.89,4.89,0,0,0,0,4.62Z"/><path class="cls-1" d="M60,115.79l-2.24-4.27h-3v4.27h-4V100.37h6.93a7.12,7.12,0,0,1,4.74,1.42,5,5,0,0,1,1.68,4,6,6,0,0,1-.7,3,4.87,4.87,0,0,1-2,2l3.21,5Zm-5.24-7.48H57.7a2.71,2.71,0,0,0,1.9-.61,2.32,2.32,0,0,0,.67-1.79,2.19,2.19,0,0,0-.67-1.72,2.71,2.71,0,0,0-1.9-.61H54.77Z"/></svg>