<svg id="Layer_1" data-name="Layer 1" xmlns="http://www.w3.org/2000/svg" viewBox="0 0 135.17 135.17"><defs><style>.cls-1{fill:#fff;}</style></defs><path class="cls-1" d="M3.22,135.17H99.77A3.23,3.23,0,0,0,103,132V16.09a3.31,3.31,0,0,0-.94-2.28L89.18.93A3.32,3.32,0,0,0,86.89,0H3.22A3.23,3.23,0,0,0,0,3.22V132A3.23,3.23,0,0,0,3.22,135.17ZM6.44,6.44H85.58l11,11V128.73H6.44Z"/><path class="cls-1" d="M29,25.75H16.09A3.22,3.22,0,0,0,12.87,29V41.84a3.23,3.23,0,0,0,3.22,3.22H29a3.23,3.23,0,0,0,3.22-3.22V29A3.22,3.22,0,0,0,29,25.75ZM25.75,38.62H19.31V32.18h6.44Z"/><path class="cls-1" d="M29,51.49H16.09a3.23,3.23,0,0,0-3.22,3.22V67.58a3.23,3.23,0,0,0,3.22,3.22H29a3.23,3.23,0,0,0,3.22-3.22V54.71A3.23,3.23,0,0,0,29,51.49ZM25.75,64.37H19.31V57.93h6.44Z"/><path class="cls-1" d="M29,77.24H16.09a3.23,3.23,0,0,0-3.22,3.22V93.33a3.23,3.23,0,0,0,3.22,3.22H29a3.23,3.23,0,0,0,3.22-3.22V80.46A3.23,3.23,0,0,0,29,77.24ZM25.75,90.11H19.31V83.68h6.44Z"/><path class="cls-1" d="M29,103H16.09a3.22,3.22,0,0,0-3.22,3.21v12.88a3.23,3.23,0,0,0,3.22,3.22H29a3.23,3.23,0,0,0,3.22-3.22V106.2A3.22,3.22,0,0,0,29,103Zm-3.21,12.87H19.31v-6.44h6.44Z"/><path class="cls-1" d="M41.84,38.62H74a3.22,3.22,0,0,0,0-6.44H41.84a3.22,3.22,0,0,0,0,6.44Z"/><path class="cls-1" d="M86.89,57.93h-45a3.22,3.22,0,1,0,0,6.44H86.89a3.22,3.22,0,1,0,0-6.44Z"/><path class="cls-1" d="M86.89,83.68h-45a3.22,3.22,0,1,0,0,6.43H86.89a3.22,3.22,0,1,0,0-6.43Z"/><path class="cls-1" d="M86.89,109.42h-45a3.22,3.22,0,0,0,0,6.44H86.89a3.22,3.22,0,0,0,0-6.44Z"/><path class="cls-1" d="M132,0H112.64a3.23,3.23,0,0,0-3.22,3.22V99.77a2.42,2.42,0,0,0,.1.45c0,.16,0,.32,0,.48l9.66,32.18a3.23,3.23,0,0,0,6.18,0L135,100.7a2.58,2.58,0,0,0,0-.48,1.82,1.82,0,0,0,.1-.45V3.22A3.23,3.23,0,0,0,132,0ZM122.3,120.75,117,103h10.66Zm6.43-24.2H115.86V6.44h12.87Z"/><path class="cls-1" d="M122.3,86.89a3.21,3.21,0,0,0,3.21-3.21V19.31a3.22,3.22,0,1,0-6.43,0V83.68A3.22,3.22,0,0,0,122.3,86.89Z"/></svg>