<svg id="Layer_1" data-name="Layer 1" xmlns="http://www.w3.org/2000/svg" viewBox="0 0 130.72 136.35"><defs><style>.cls-1{fill:#fff;}</style></defs><rect class="cls-1" x="40.57" y="9.02" width="4.51" height="4.51"/><rect class="cls-1" x="49.58" y="9.02" width="18.03" height="4.51"/><path class="cls-1" d="M121.7,99.17a8.9,8.9,0,0,0-5.79,2.11,9.05,9.05,0,0,0-7.73-4.37A8.84,8.84,0,0,0,102.39,99a9.11,9.11,0,0,0-3.22-3.16V15.78A15.8,15.8,0,0,0,83.39,0H33.81A15.8,15.8,0,0,0,18,15.78V56.93a11.24,11.24,0,0,0-6.72,6l-9,19.59A24.35,24.35,0,0,0,0,92.85v42.38H4.51V92.85a19.94,19.94,0,0,1,1.87-8.49l9-19.59A6.56,6.56,0,0,1,18,61.91v39.51a13.88,13.88,0,0,0,.18,2.23l-1.44,2.5,3.9,2.26L34.19,85a4.51,4.51,0,0,1,2.73-2.12,4.64,4.64,0,0,1,3.42.45A4.55,4.55,0,0,1,42,89.5L31.85,107.05a2.33,2.33,0,0,0,0,2.3l4.84,8a11.34,11.34,0,0,1,1.6,5.79v12h4.51v-12a15.85,15.85,0,0,0-1.19-6H55.31a9.52,9.52,0,0,0,.9,2.34l9.71,16.81,3.9-2.25-9.71-16.81a4.51,4.51,0,1,1,7.61-4.84l.19.33,4.5,7.8A2.32,2.32,0,0,0,75,121.64a2.27,2.27,0,0,0,1.67-2.19V81.14a4.51,4.51,0,1,1,9,0v31.55a2.26,2.26,0,0,0,4.51,0v-9a4.51,4.51,0,0,1,9,0v9a2.25,2.25,0,0,0,4.5,0v-6.76a4.51,4.51,0,1,1,9,0v6.76a2.26,2.26,0,0,0,4.51,0v-4.51a4.51,4.51,0,1,1,9,0v27h4.51v-27A9,9,0,0,0,121.7,99.17Zm-58.59,4.5h-9a2.25,2.25,0,1,1,0-4.5h9a2.25,2.25,0,0,1,0,4.5Zm31.55-9a9,9,0,0,0-4.51,1.21V81.14a9,9,0,0,0-6.83-8.73,1,1,0,0,0,.07-.29v-9H78.88v6.76H72.12v4.5h3.11a9,9,0,0,0-3.11,6.77V111l-.29-.52a8.86,8.86,0,0,0-4.53-3.85,6.72,6.72,0,0,0-4.19-12h-9a6.76,6.76,0,0,0,0,13.52h4.08a9,9,0,0,0-2.86,4.51H39.15l-2.73-4.53,9.49-16.41a9,9,0,0,0-3.29-12.32h0a9,9,0,0,0-12.31,3.32L22.54,96.15V15.78A11.26,11.26,0,0,1,33.81,4.51H83.39A11.27,11.27,0,0,1,94.66,15.78Z"/><rect class="cls-1" x="42.82" y="33.81" width="9.02" height="9.02"/><rect class="cls-1" x="65.36" y="33.81" width="9.02" height="9.02"/><rect class="cls-1" x="42.82" y="56.34" width="9.02" height="9.02"/><polygon class="cls-1" points="69.87 60.85 65.36 60.85 65.36 65.36 74.37 65.36 74.37 56.34 69.87 56.34 69.87 60.85"/><rect class="cls-1" x="56.34" y="33.81" width="4.51" height="9.02"/><rect class="cls-1" x="65.36" y="47.33" width="9.02" height="4.51"/><rect class="cls-1" x="51.84" y="47.33" width="9.02" height="4.51"/><rect class="cls-1" x="56.34" y="56.34" width="4.51" height="9.02"/><rect class="cls-1" x="42.82" y="47.33" width="4.51" height="4.51"/><path class="cls-1" d="M38.31,29.3h6.77V24.79h-9a2.26,2.26,0,0,0-2.25,2.26v9h4.5Z"/><path class="cls-1" d="M81.14,24.79h-9V29.3h6.76v6.76h4.51v-9A2.26,2.26,0,0,0,81.14,24.79Z"/><path class="cls-1" d="M38.31,63.11h-4.5v9a2.25,2.25,0,0,0,2.25,2.25h9v-4.5H38.31Z"/></svg>